{
	"patcher" : 	{
		"fileversion" : 1,
		"appversion" : 		{
			"major" : 8,
			"minor" : 1,
			"revision" : 5,
			"architecture" : "x64",
			"modernui" : 1
		}
,
		"classnamespace" : "box",
		"rect" : [ 34.0, 56.0, 1331.0, 1110.0 ],
		"bglocked" : 0,
		"openinpresentation" : 0,
		"default_fontsize" : 12.0,
		"default_fontface" : 0,
		"default_fontname" : "Arial",
		"gridonopen" : 1,
		"gridsize" : [ 15.0, 15.0 ],
		"gridsnaponopen" : 1,
		"objectsnaponopen" : 1,
		"statusbarvisible" : 2,
		"toolbarvisible" : 1,
		"lefttoolbarpinned" : 0,
		"toptoolbarpinned" : 0,
		"righttoolbarpinned" : 0,
		"bottomtoolbarpinned" : 0,
		"toolbars_unpinned_last_save" : 0,
		"tallnewobj" : 0,
		"boxanimatetime" : 200,
		"enablehscroll" : 1,
		"enablevscroll" : 1,
		"devicewidth" : 0.0,
		"description" : "",
		"digest" : "",
		"tags" : "",
		"style" : "",
		"subpatcher_template" : "",
		"assistshowspatchername" : 0,
		"boxes" : [ 			{
				"box" : 				{
					"id" : "obj-231",
					"maxclass" : "newobj",
					"numinlets" : 1,
					"numoutlets" : 0,
					"patching_rect" : [ 736.5, 676.5, 114.0, 22.0 ],
					"saved_object_attributes" : 					{
						"filename" : "sendRemapper.js",
						"parameter_enable" : 0
					}
,
					"text" : "js sendRemapper.js"
				}

			}
, 			{
				"box" : 				{
					"id" : "obj-189",
					"maxclass" : "live.comment",
					"numinlets" : 1,
					"numoutlets" : 0,
					"patching_rect" : [ 786.0, 644.0, 152.0, 18.0 ],
					"presentation" : 1,
					"presentation_rect" : [ 69.0, 121.0, 143.0, 18.0 ],
					"text" : "Select denote-microtonal index",
					"textjustification" : 0
				}

			}
, 			{
				"box" : 				{
					"id" : "obj-186",
					"maxclass" : "live.numbox",
					"numinlets" : 1,
					"numoutlets" : 2,
					"outlettype" : [ "", "float" ],
					"parameter_enable" : 1,
					"patching_rect" : [ 736.5, 644.0, 44.0, 15.0 ],
					"presentation" : 1,
					"presentation_rect" : [ 23.0, 122.5, 44.0, 15.0 ],
					"saved_attribute_attributes" : 					{
						"valueof" : 						{
							"parameter_invisible" : 1,
							"parameter_longname" : "live.numbox",
							"parameter_shortname" : "live.numbox",
							"parameter_type" : 1,
							"parameter_unitstyle" : 0
						}

					}
,
					"varname" : "live.numbox"
				}

			}
, 			{
				"box" : 				{
					"id" : "obj-43",
					"maxclass" : "newobj",
					"numinlets" : 9,
					"numoutlets" : 9,
					"outlettype" : [ "", "", "", "", "", "", "", "", "" ],
					"patching_rect" : [ 178.0, 642.0, 523.0, 22.0 ],
					"text" : "route 0 1 2 3 4 5 6 7",
					"varname" : "sendRouter"
				}

			}
, 			{
				"box" : 				{
					"id" : "obj-165",
					"maxclass" : "newobj",
					"numinlets" : 1,
					"numoutlets" : 2,
					"outlettype" : [ "", "" ],
					"patching_rect" : [ 178.0, 371.5, 94.0, 22.0 ],
					"text" : "t l l"
				}

			}
, 			{
				"box" : 				{
					"id" : "obj-162",
					"maxclass" : "newobj",
					"numinlets" : 2,
					"numoutlets" : 1,
					"outlettype" : [ "int" ],
					"patching_rect" : [ 253.0, 462.0, 36.0, 22.0 ],
					"text" : "% 12"
				}

			}
, 			{
				"box" : 				{
					"id" : "obj-156",
					"maxclass" : "newobj",
					"numinlets" : 2,
					"numoutlets" : 1,
					"outlettype" : [ "int" ],
					"patching_rect" : [ 335.0, 490.0, 29.5, 22.0 ],
					"text" : "+ 1"
				}

			}
, 			{
				"box" : 				{
					"id" : "obj-154",
					"maxclass" : "newobj",
					"numinlets" : 2,
					"numoutlets" : 2,
					"outlettype" : [ "", "" ],
					"patching_rect" : [ 335.0, 551.0, 42.0, 22.0 ],
					"text" : "gate 2"
				}

			}
, 			{
				"box" : 				{
					"id" : "obj-153",
					"maxclass" : "newobj",
					"numinlets" : 1,
					"numoutlets" : 2,
					"outlettype" : [ "int", "int" ],
					"patching_rect" : [ 294.0, 462.0, 29.5, 22.0 ],
					"text" : "t i i"
				}

			}
, 			{
				"box" : 				{
					"id" : "obj-151",
					"maxclass" : "message",
					"numinlets" : 2,
					"numoutlets" : 1,
					"outlettype" : [ "" ],
					"patching_rect" : [ 358.0, 577.0, 65.0, 22.0 ],
					"text" : "remove $1"
				}

			}
, 			{
				"box" : 				{
					"id" : "obj-149",
					"maxclass" : "newobj",
					"numinlets" : 2,
					"numoutlets" : 1,
					"outlettype" : [ "int" ],
					"patching_rect" : [ 335.0, 462.0, 33.0, 22.0 ],
					"text" : "== 0"
				}

			}
, 			{
				"box" : 				{
					"id" : "obj-142",
					"maxclass" : "newobj",
					"numinlets" : 1,
					"numoutlets" : 4,
					"outlettype" : [ "", "", "", "" ],
					"patching_rect" : [ 335.0, 610.0, 59.0, 22.0 ],
					"saved_object_attributes" : 					{
						"embed" : 0,
						"precision" : 6
					}
,
					"text" : "coll notes"
				}

			}
, 			{
				"box" : 				{
					"id" : "obj-137",
					"maxclass" : "newobj",
					"numinlets" : 2,
					"numoutlets" : 2,
					"outlettype" : [ "int", "int" ],
					"patching_rect" : [ 253.0, 490.0, 60.0, 22.0 ],
					"text" : "swap"
				}

			}
, 			{
				"box" : 				{
					"id" : "obj-136",
					"maxclass" : "newobj",
					"numinlets" : 2,
					"numoutlets" : 1,
					"outlettype" : [ "" ],
					"patching_rect" : [ 253.0, 521.0, 60.0, 22.0 ],
					"text" : "pack 0 0"
				}

			}
, 			{
				"box" : 				{
					"id" : "obj-135",
					"maxclass" : "newobj",
					"numinlets" : 1,
					"numoutlets" : 2,
					"outlettype" : [ "int", "int" ],
					"patching_rect" : [ 253.0, 409.5, 142.0, 22.0 ],
					"text" : "unpack 0 0"
				}

			}
, 			{
				"box" : 				{
					"id" : "obj-134",
					"maxclass" : "newobj",
					"numinlets" : 1,
					"numoutlets" : 8,
					"outlettype" : [ "", "", "", "int", "int", "", "int", "" ],
					"patching_rect" : [ 178.0, 342.5, 92.5, 22.0 ],
					"text" : "midiparse"
				}

			}
, 			{
				"box" : 				{
					"id" : "obj-132",
					"maxclass" : "newobj",
					"numinlets" : 2,
					"numoutlets" : 4,
					"outlettype" : [ "int", "int", "int", "list" ],
					"patching_rect" : [ 253.0, 433.0, 142.0, 22.0 ],
					"text" : "poly 8"
				}

			}
, 			{
				"box" : 				{
					"id" : "obj-131",
					"maxclass" : "newobj",
					"numinlets" : 1,
					"numoutlets" : 1,
					"outlettype" : [ "int" ],
					"patching_rect" : [ 178.0, 317.0, 40.0, 22.0 ],
					"text" : "midiin"
				}

			}
, 			{
				"box" : 				{
					"id" : "obj-124",
					"maxclass" : "newobj",
					"numinlets" : 1,
					"numoutlets" : 2,
					"outlettype" : [ "int", "" ],
					"patching_rect" : [ 407.0, 188.0, 36.0, 22.0 ],
					"text" : "t i l"
				}

			}
, 			{
				"box" : 				{
					"coll_data" : 					{
						"count" : 12,
						"data" : [ 							{
								"key" : 0,
								"value" : [ 0 ]
							}
, 							{
								"key" : 1,
								"value" : [ 0 ]
							}
, 							{
								"key" : 2,
								"value" : [ 0 ]
							}
, 							{
								"key" : 3,
								"value" : [ 0 ]
							}
, 							{
								"key" : 4,
								"value" : [ 0 ]
							}
, 							{
								"key" : 5,
								"value" : [ 0 ]
							}
, 							{
								"key" : 6,
								"value" : [ 0 ]
							}
, 							{
								"key" : 7,
								"value" : [ 0 ]
							}
, 							{
								"key" : 8,
								"value" : [ 0 ]
							}
, 							{
								"key" : 9,
								"value" : [ 0 ]
							}
, 							{
								"key" : 10,
								"value" : [ 0 ]
							}
, 							{
								"key" : 11,
								"value" : [ 0 ]
							}
 ]
					}
,
					"id" : "obj-118",
					"maxclass" : "newobj",
					"numinlets" : 1,
					"numoutlets" : 4,
					"outlettype" : [ "", "", "", "" ],
					"patching_rect" : [ 424.0, 218.0, 89.0, 22.0 ],
					"saved_object_attributes" : 					{
						"embed" : 1,
						"precision" : 6
					}
,
					"text" : "coll note_ratios"
				}

			}
, 			{
				"box" : 				{
					"id" : "obj-109",
					"maxclass" : "newobj",
					"numinlets" : 1,
					"numoutlets" : 1,
					"outlettype" : [ "" ],
					"patching_rect" : [ 1128.0, 155.0, 68.0, 22.0 ],
					"text" : "prepend 11"
				}

			}
, 			{
				"box" : 				{
					"id" : "obj-108",
					"maxclass" : "newobj",
					"numinlets" : 1,
					"numoutlets" : 1,
					"outlettype" : [ "" ],
					"patching_rect" : [ 1057.0, 155.0, 69.0, 22.0 ],
					"text" : "prepend 10"
				}

			}
, 			{
				"box" : 				{
					"id" : "obj-107",
					"maxclass" : "newobj",
					"numinlets" : 1,
					"numoutlets" : 1,
					"outlettype" : [ "" ],
					"patching_rect" : [ 992.0, 155.0, 63.0, 22.0 ],
					"text" : "prepend 9"
				}

			}
, 			{
				"box" : 				{
					"id" : "obj-106",
					"maxclass" : "newobj",
					"numinlets" : 1,
					"numoutlets" : 1,
					"outlettype" : [ "" ],
					"patching_rect" : [ 927.0, 155.0, 63.0, 22.0 ],
					"text" : "prepend 8"
				}

			}
, 			{
				"box" : 				{
					"id" : "obj-105",
					"maxclass" : "newobj",
					"numinlets" : 1,
					"numoutlets" : 1,
					"outlettype" : [ "" ],
					"patching_rect" : [ 862.0, 155.0, 63.0, 22.0 ],
					"text" : "prepend 7"
				}

			}
, 			{
				"box" : 				{
					"id" : "obj-104",
					"maxclass" : "newobj",
					"numinlets" : 1,
					"numoutlets" : 1,
					"outlettype" : [ "" ],
					"patching_rect" : [ 797.0, 155.0, 63.0, 22.0 ],
					"text" : "prepend 6"
				}

			}
, 			{
				"box" : 				{
					"id" : "obj-103",
					"maxclass" : "newobj",
					"numinlets" : 1,
					"numoutlets" : 1,
					"outlettype" : [ "" ],
					"patching_rect" : [ 732.0, 155.0, 63.0, 22.0 ],
					"text" : "prepend 5"
				}

			}
, 			{
				"box" : 				{
					"id" : "obj-102",
					"maxclass" : "newobj",
					"numinlets" : 1,
					"numoutlets" : 1,
					"outlettype" : [ "" ],
					"patching_rect" : [ 667.0, 155.0, 63.0, 22.0 ],
					"text" : "prepend 4"
				}

			}
, 			{
				"box" : 				{
					"id" : "obj-101",
					"maxclass" : "newobj",
					"numinlets" : 1,
					"numoutlets" : 1,
					"outlettype" : [ "" ],
					"patching_rect" : [ 602.0, 155.0, 63.0, 22.0 ],
					"text" : "prepend 3"
				}

			}
, 			{
				"box" : 				{
					"id" : "obj-100",
					"maxclass" : "newobj",
					"numinlets" : 1,
					"numoutlets" : 1,
					"outlettype" : [ "" ],
					"patching_rect" : [ 537.0, 155.0, 63.0, 22.0 ],
					"text" : "prepend 2"
				}

			}
, 			{
				"box" : 				{
					"id" : "obj-99",
					"maxclass" : "newobj",
					"numinlets" : 1,
					"numoutlets" : 1,
					"outlettype" : [ "" ],
					"patching_rect" : [ 472.0, 155.0, 63.0, 22.0 ],
					"text" : "prepend 1"
				}

			}
, 			{
				"box" : 				{
					"id" : "obj-98",
					"maxclass" : "newobj",
					"numinlets" : 1,
					"numoutlets" : 1,
					"outlettype" : [ "" ],
					"patching_rect" : [ 407.0, 155.0, 63.0, 22.0 ],
					"text" : "prepend 0"
				}

			}
, 			{
				"box" : 				{
					"id" : "obj-93",
					"maxclass" : "newobj",
					"numinlets" : 2,
					"numoutlets" : 1,
					"outlettype" : [ "" ],
					"patcher" : 					{
						"fileversion" : 1,
						"appversion" : 						{
							"major" : 8,
							"minor" : 1,
							"revision" : 5,
							"architecture" : "x64",
							"modernui" : 1
						}
,
						"classnamespace" : "box",
						"rect" : [ 95.0, 123.0, 1193.0, 761.0 ],
						"bglocked" : 0,
						"openinpresentation" : 0,
						"default_fontsize" : 12.0,
						"default_fontface" : 0,
						"default_fontname" : "Arial",
						"gridonopen" : 1,
						"gridsize" : [ 15.0, 15.0 ],
						"gridsnaponopen" : 1,
						"objectsnaponopen" : 1,
						"statusbarvisible" : 2,
						"toolbarvisible" : 1,
						"lefttoolbarpinned" : 0,
						"toptoolbarpinned" : 0,
						"righttoolbarpinned" : 0,
						"bottomtoolbarpinned" : 0,
						"toolbars_unpinned_last_save" : 0,
						"tallnewobj" : 0,
						"boxanimatetime" : 200,
						"enablehscroll" : 1,
						"enablevscroll" : 1,
						"devicewidth" : 0.0,
						"description" : "",
						"digest" : "",
						"tags" : "",
						"style" : "",
						"subpatcher_template" : "",
						"assistshowspatchername" : 0,
						"boxes" : [ 							{
								"box" : 								{
									"id" : "obj-90",
									"maxclass" : "newobj",
									"numinlets" : 1,
									"numoutlets" : 0,
									"patching_rect" : [ 447.5, 128.0, 104.0, 22.0 ],
									"text" : "s ---get_tempered"
								}

							}
, 							{
								"box" : 								{
									"id" : "obj-89",
									"maxclass" : "newobj",
									"numinlets" : 0,
									"numoutlets" : 1,
									"outlettype" : [ "" ],
									"patching_rect" : [ 262.5, 306.0, 102.0, 22.0 ],
									"text" : "r ---get_tempered"
								}

							}
, 							{
								"box" : 								{
									"id" : "obj-86",
									"maxclass" : "newobj",
									"numinlets" : 1,
									"numoutlets" : 2,
									"outlettype" : [ "float", "bang" ],
									"patching_rect" : [ 441.333333333333314, 344.0, 41.0, 22.0 ],
									"text" : "t f b"
								}

							}
, 							{
								"box" : 								{
									"id" : "obj-79",
									"maxclass" : "message",
									"numinlets" : 2,
									"numoutlets" : 1,
									"outlettype" : [ "" ],
									"patching_rect" : [ 233.0, 468.0, 41.0, 22.0 ],
									"text" : "set $1"
								}

							}
, 							{
								"box" : 								{
									"id" : "obj-77",
									"maxclass" : "newobj",
									"numinlets" : 1,
									"numoutlets" : 4,
									"outlettype" : [ "", "", "", "" ],
									"patching_rect" : [ 233.0, 435.0, 59.0, 22.0 ],
									"saved_object_attributes" : 									{
										"embed" : 0,
										"precision" : 6
									}
,
									"text" : "coll notes"
								}

							}
, 							{
								"box" : 								{
									"id" : "obj-76",
									"maxclass" : "newobj",
									"numinlets" : 1,
									"numoutlets" : 1,
									"outlettype" : [ "" ],
									"patching_rect" : [ 205.5, 562.0, 53.0, 22.0 ],
									"text" : "prepend"
								}

							}
, 							{
								"box" : 								{
									"id" : "obj-75",
									"maxclass" : "newobj",
									"numinlets" : 2,
									"numoutlets" : 1,
									"outlettype" : [ "int" ],
									"patching_rect" : [ 528.333333333333258, 494.0, 29.5, 22.0 ],
									"text" : "- 1"
								}

							}
, 							{
								"box" : 								{
									"id" : "obj-66",
									"maxclass" : "newobj",
									"numinlets" : 1,
									"numoutlets" : 1,
									"outlettype" : [ "" ],
									"patching_rect" : [ 451.833333333333314, 525.0, 69.0, 22.0 ],
									"text" : "prepend pb"
								}

							}
, 							{
								"box" : 								{
									"id" : "obj-65",
									"maxclass" : "newobj",
									"numinlets" : 1,
									"numoutlets" : 2,
									"outlettype" : [ "float", "float" ],
									"patching_rect" : [ 441.333333333333314, 468.0, 29.5, 22.0 ],
									"text" : "t f f"
								}

							}
, 							{
								"box" : 								{
									"id" : "obj-48",
									"maxclass" : "message",
									"numinlets" : 2,
									"numoutlets" : 1,
									"outlettype" : [ "" ],
									"patching_rect" : [ 528.333333333333258, 525.0, 41.0, 22.0 ],
									"text" : "set $1"
								}

							}
, 							{
								"box" : 								{
									"id" : "obj-46",
									"maxclass" : "newobj",
									"numinlets" : 1,
									"numoutlets" : 1,
									"outlettype" : [ "" ],
									"patching_rect" : [ 528.333333333333258, 562.0, 53.0, 22.0 ],
									"text" : "prepend"
								}

							}
, 							{
								"box" : 								{
									"id" : "obj-44",
									"maxclass" : "newobj",
									"numinlets" : 1,
									"numoutlets" : 4,
									"outlettype" : [ "", "", "", "" ],
									"patching_rect" : [ 528.333333333333258, 468.0, 59.0, 22.0 ],
									"saved_object_attributes" : 									{
										"embed" : 0,
										"precision" : 6
									}
,
									"text" : "coll notes"
								}

							}
, 							{
								"box" : 								{
									"id" : "obj-40",
									"maxclass" : "newobj",
									"numinlets" : 1,
									"numoutlets" : 4,
									"outlettype" : [ "int", "int", "int", "int" ],
									"patching_rect" : [ 416.0, 93.5, 50.5, 22.0 ],
									"text" : "t i i i i"
								}

							}
, 							{
								"box" : 								{
									"coll_data" : 									{
										"count" : 12,
										"data" : [ 											{
												"key" : 0,
												"value" : [ 0 ]
											}
, 											{
												"key" : 1,
												"value" : [ 0 ]
											}
, 											{
												"key" : 2,
												"value" : [ 0 ]
											}
, 											{
												"key" : 3,
												"value" : [ 0 ]
											}
, 											{
												"key" : 4,
												"value" : [ 0 ]
											}
, 											{
												"key" : 5,
												"value" : [ 0 ]
											}
, 											{
												"key" : 6,
												"value" : [ 0 ]
											}
, 											{
												"key" : 7,
												"value" : [ 0 ]
											}
, 											{
												"key" : 8,
												"value" : [ 0 ]
											}
, 											{
												"key" : 9,
												"value" : [ 0 ]
											}
, 											{
												"key" : 10,
												"value" : [ 0 ]
											}
, 											{
												"key" : 11,
												"value" : [ 0 ]
											}
 ]
									}
,
									"id" : "obj-38",
									"maxclass" : "newobj",
									"numinlets" : 1,
									"numoutlets" : 4,
									"outlettype" : [ "", "", "", "" ],
									"patching_rect" : [ 416.0, 175.0, 89.0, 22.0 ],
									"saved_object_attributes" : 									{
										"embed" : 1,
										"precision" : 6
									}
,
									"text" : "coll note_ratios"
								}

							}
, 							{
								"box" : 								{
									"comment" : "",
									"id" : "obj-37",
									"index" : 1,
									"maxclass" : "outlet",
									"numinlets" : 1,
									"numoutlets" : 0,
									"patching_rect" : [ 205.5, 633.0, 30.0, 30.0 ]
								}

							}
, 							{
								"box" : 								{
									"id" : "obj-30",
									"maxclass" : "newobj",
									"numinlets" : 1,
									"numoutlets" : 3,
									"outlettype" : [ "int", "int", "int" ],
									"patching_rect" : [ 233.0, 271.0, 40.0, 22.0 ],
									"text" : "t i i i"
								}

							}
, 							{
								"box" : 								{
									"id" : "obj-27",
									"maxclass" : "newobj",
									"numinlets" : 1,
									"numoutlets" : 1,
									"outlettype" : [ "" ],
									"patching_rect" : [ 318.0, 204.0, 81.0, 22.0 ],
									"text" : "sprintf get %s"
								}

							}
, 							{
								"box" : 								{
									"id" : "obj-22",
									"maxclass" : "newobj",
									"numinlets" : 1,
									"numoutlets" : 4,
									"outlettype" : [ "", "", "", "" ],
									"patching_rect" : [ 318.0, 175.0, 91.0, 22.0 ],
									"saved_object_attributes" : 									{
										"embed" : 0,
										"precision" : 6
									}
,
									"text" : "coll noteNames"
								}

							}
, 							{
								"box" : 								{
									"id" : "obj-16",
									"maxclass" : "newobj",
									"numinlets" : 3,
									"numoutlets" : 1,
									"outlettype" : [ "" ],
									"patching_rect" : [ 205.5, 525.0, 64.0, 22.0 ],
									"text" : "pack 0 0 0"
								}

							}
, 							{
								"box" : 								{
									"id" : "obj-15",
									"maxclass" : "newobj",
									"numinlets" : 1,
									"numoutlets" : 2,
									"outlettype" : [ "", "" ],
									"patching_rect" : [ 205.5, 175.0, 46.5, 22.0 ],
									"text" : "t l l"
								}

							}
, 							{
								"box" : 								{
									"id" : "obj-14",
									"maxclass" : "newobj",
									"numinlets" : 1,
									"numoutlets" : 2,
									"outlettype" : [ "int", "int" ],
									"patching_rect" : [ 233.0, 204.0, 67.0, 22.0 ],
									"text" : "unpack 0 0"
								}

							}
, 							{
								"box" : 								{
									"id" : "obj-13",
									"maxclass" : "newobj",
									"numinlets" : 2,
									"numoutlets" : 1,
									"outlettype" : [ "int" ],
									"patching_rect" : [ 233.0, 240.0, 36.0, 22.0 ],
									"text" : "% 12"
								}

							}
, 							{
								"box" : 								{
									"id" : "obj-5",
									"maxclass" : "newobj",
									"numinlets" : 1,
									"numoutlets" : 1,
									"outlettype" : [ "" ],
									"patching_rect" : [ 243.5, 344.0, 121.0, 22.0 ],
									"text" : "expr pow(2\\, $i1 / 12.)"
								}

							}
, 							{
								"box" : 								{
									"comment" : "",
									"id" : "obj-4",
									"index" : 2,
									"maxclass" : "inlet",
									"numinlets" : 0,
									"numoutlets" : 1,
									"outlettype" : [ "int" ],
									"patching_rect" : [ 416.0, 54.0, 30.0, 30.0 ]
								}

							}
, 							{
								"box" : 								{
									"comment" : "",
									"id" : "obj-3",
									"index" : 1,
									"maxclass" : "inlet",
									"numinlets" : 0,
									"numoutlets" : 1,
									"outlettype" : [ "" ],
									"patching_rect" : [ 205.5, 138.0, 30.0, 30.0 ]
								}

							}
, 							{
								"box" : 								{
									"id" : "obj-62",
									"maxclass" : "newobj",
									"numinlets" : 1,
									"numoutlets" : 2,
									"outlettype" : [ "bang", "int" ],
									"patching_rect" : [ 416.0, 204.0, 29.5, 22.0 ],
									"text" : "t b i"
								}

							}
, 							{
								"box" : 								{
									"id" : "obj-59",
									"maxclass" : "message",
									"numinlets" : 2,
									"numoutlets" : 1,
									"outlettype" : [ "" ],
									"patching_rect" : [ 463.333333333333314, 376.0, 74.499999999999943, 22.0 ],
									"text" : "1.122462"
								}

							}
, 							{
								"box" : 								{
									"id" : "obj-57",
									"maxclass" : "newobj",
									"numinlets" : 2,
									"numoutlets" : 1,
									"outlettype" : [ "float" ],
									"patching_rect" : [ 441.333333333333314, 405.0, 41.0, 22.0 ],
									"text" : "/ 0."
								}

							}
, 							{
								"box" : 								{
									"id" : "obj-35",
									"maxclass" : "newobj",
									"numinlets" : 1,
									"numoutlets" : 1,
									"outlettype" : [ "" ],
									"patching_rect" : [ 441.333333333333314, 435.0, 189.0, 22.0 ],
									"text" : "expr 8192 * 3.321928 * log10($f1)"
								}

							}
, 							{
								"box" : 								{
									"id" : "obj-26",
									"maxclass" : "newobj",
									"numinlets" : 2,
									"numoutlets" : 1,
									"outlettype" : [ "int" ],
									"patching_rect" : [ 521.083333333333258, 271.0, 29.5, 22.0 ],
									"text" : "+ 1"
								}

							}
, 							{
								"box" : 								{
									"id" : "obj-25",
									"maxclass" : "newobj",
									"numinlets" : 2,
									"numoutlets" : 2,
									"outlettype" : [ "", "" ],
									"patching_rect" : [ 441.333333333333314, 306.0, 41.0, 22.0 ],
									"text" : "zl.mth"
								}

							}
, 							{
								"box" : 								{
									"id" : "obj-19",
									"maxclass" : "message",
									"numinlets" : 2,
									"numoutlets" : 1,
									"outlettype" : [ "" ],
									"patching_rect" : [ 416.0, 240.0, 58.0, 22.0 ],
									"text" : "get D"
								}

							}
, 							{
								"box" : 								{
									"id" : "obj-6",
									"maxclass" : "newobj",
									"numinlets" : 2,
									"numoutlets" : 4,
									"outlettype" : [ "dictionary", "", "", "" ],
									"patching_rect" : [ 416.0, 271.0, 95.0, 22.0 ],
									"saved_object_attributes" : 									{
										"embed" : 0,
										"parameter_enable" : 0,
										"parameter_mappable" : 0
									}
,
									"text" : "dict ratio_values"
								}

							}
 ],
						"lines" : [ 							{
								"patchline" : 								{
									"destination" : [ "obj-30", 0 ],
									"source" : [ "obj-13", 0 ]
								}

							}
, 							{
								"patchline" : 								{
									"destination" : [ "obj-13", 0 ],
									"source" : [ "obj-14", 0 ]
								}

							}
, 							{
								"patchline" : 								{
									"destination" : [ "obj-14", 0 ],
									"source" : [ "obj-15", 1 ]
								}

							}
, 							{
								"patchline" : 								{
									"destination" : [ "obj-16", 0 ],
									"source" : [ "obj-15", 0 ]
								}

							}
, 							{
								"patchline" : 								{
									"destination" : [ "obj-76", 0 ],
									"source" : [ "obj-16", 0 ]
								}

							}
, 							{
								"patchline" : 								{
									"destination" : [ "obj-6", 0 ],
									"source" : [ "obj-19", 0 ]
								}

							}
, 							{
								"patchline" : 								{
									"destination" : [ "obj-27", 0 ],
									"source" : [ "obj-22", 0 ]
								}

							}
, 							{
								"patchline" : 								{
									"destination" : [ "obj-86", 0 ],
									"source" : [ "obj-25", 0 ]
								}

							}
, 							{
								"patchline" : 								{
									"destination" : [ "obj-25", 1 ],
									"midpoints" : [ 530.583333333333258, 299.0, 472.833333333333314, 299.0 ],
									"source" : [ "obj-26", 0 ]
								}

							}
, 							{
								"patchline" : 								{
									"destination" : [ "obj-19", 1 ],
									"midpoints" : [ 327.5, 234.5, 464.5, 234.5 ],
									"source" : [ "obj-27", 0 ]
								}

							}
, 							{
								"patchline" : 								{
									"destination" : [ "obj-15", 0 ],
									"source" : [ "obj-3", 0 ]
								}

							}
, 							{
								"patchline" : 								{
									"destination" : [ "obj-22", 0 ],
									"midpoints" : [ 263.5, 298.5, 303.75, 298.5, 303.75, 163.0, 327.5, 163.0 ],
									"source" : [ "obj-30", 2 ]
								}

							}
, 							{
								"patchline" : 								{
									"destination" : [ "obj-5", 0 ],
									"source" : [ "obj-30", 1 ]
								}

							}
, 							{
								"patchline" : 								{
									"destination" : [ "obj-77", 0 ],
									"source" : [ "obj-30", 0 ]
								}

							}
, 							{
								"patchline" : 								{
									"destination" : [ "obj-65", 0 ],
									"source" : [ "obj-35", 0 ]
								}

							}
, 							{
								"patchline" : 								{
									"destination" : [ "obj-62", 0 ],
									"source" : [ "obj-38", 0 ]
								}

							}
, 							{
								"patchline" : 								{
									"destination" : [ "obj-40", 0 ],
									"source" : [ "obj-4", 0 ]
								}

							}
, 							{
								"patchline" : 								{
									"destination" : [ "obj-22", 0 ],
									"midpoints" : [ 436.0, 163.25, 327.5, 163.25 ],
									"source" : [ "obj-40", 1 ]
								}

							}
, 							{
								"patchline" : 								{
									"destination" : [ "obj-38", 0 ],
									"source" : [ "obj-40", 0 ]
								}

							}
, 							{
								"patchline" : 								{
									"destination" : [ "obj-44", 0 ],
									"midpoints" : [ 446.5, 162.0, 555.0, 162.0, 555.0, 258.0, 642.0, 258.0, 642.0, 463.0, 537.833333333333258, 463.0 ],
									"source" : [ "obj-40", 2 ]
								}

							}
, 							{
								"patchline" : 								{
									"destination" : [ "obj-90", 0 ],
									"source" : [ "obj-40", 3 ]
								}

							}
, 							{
								"patchline" : 								{
									"destination" : [ "obj-75", 0 ],
									"source" : [ "obj-44", 0 ]
								}

							}
, 							{
								"patchline" : 								{
									"destination" : [ "obj-37", 0 ],
									"midpoints" : [ 537.833333333333258, 608.0, 215.0, 608.0 ],
									"source" : [ "obj-46", 0 ]
								}

							}
, 							{
								"patchline" : 								{
									"destination" : [ "obj-46", 0 ],
									"source" : [ "obj-48", 0 ]
								}

							}
, 							{
								"patchline" : 								{
									"destination" : [ "obj-59", 1 ],
									"midpoints" : [ 253.0, 369.5, 528.333333333333258, 369.5 ],
									"source" : [ "obj-5", 0 ]
								}

							}
, 							{
								"patchline" : 								{
									"destination" : [ "obj-35", 0 ],
									"source" : [ "obj-57", 0 ]
								}

							}
, 							{
								"patchline" : 								{
									"destination" : [ "obj-57", 1 ],
									"source" : [ "obj-59", 0 ]
								}

							}
, 							{
								"patchline" : 								{
									"destination" : [ "obj-25", 0 ],
									"source" : [ "obj-6", 1 ]
								}

							}
, 							{
								"patchline" : 								{
									"destination" : [ "obj-19", 0 ],
									"source" : [ "obj-62", 0 ]
								}

							}
, 							{
								"patchline" : 								{
									"destination" : [ "obj-26", 0 ],
									"midpoints" : [ 436.0, 230.0, 530.583333333333258, 230.0 ],
									"source" : [ "obj-62", 1 ]
								}

							}
, 							{
								"patchline" : 								{
									"destination" : [ "obj-16", 2 ],
									"midpoints" : [ 450.833333333333314, 496.0, 260.0, 496.0 ],
									"source" : [ "obj-65", 0 ]
								}

							}
, 							{
								"patchline" : 								{
									"destination" : [ "obj-66", 0 ],
									"source" : [ "obj-65", 1 ]
								}

							}
, 							{
								"patchline" : 								{
									"destination" : [ "obj-46", 0 ],
									"midpoints" : [ 461.333333333333314, 554.5, 537.833333333333258, 554.5 ],
									"source" : [ "obj-66", 0 ]
								}

							}
, 							{
								"patchline" : 								{
									"destination" : [ "obj-48", 0 ],
									"source" : [ "obj-75", 0 ]
								}

							}
, 							{
								"patchline" : 								{
									"destination" : [ "obj-37", 0 ],
									"source" : [ "obj-76", 0 ]
								}

							}
, 							{
								"patchline" : 								{
									"destination" : [ "obj-79", 0 ],
									"source" : [ "obj-77", 0 ]
								}

							}
, 							{
								"patchline" : 								{
									"destination" : [ "obj-76", 0 ],
									"midpoints" : [ 242.5, 510.0, 192.0, 510.0, 192.0, 558.0, 215.0, 558.0 ],
									"source" : [ "obj-79", 0 ]
								}

							}
, 							{
								"patchline" : 								{
									"destination" : [ "obj-57", 0 ],
									"source" : [ "obj-86", 0 ]
								}

							}
, 							{
								"patchline" : 								{
									"destination" : [ "obj-59", 0 ],
									"source" : [ "obj-86", 1 ]
								}

							}
, 							{
								"patchline" : 								{
									"destination" : [ "obj-5", 0 ],
									"midpoints" : [ 272.0, 335.5, 253.0, 335.5 ],
									"source" : [ "obj-89", 0 ]
								}

							}
 ]
					}
,
					"patching_rect" : [ 178.0, 409.5, 60.0, 22.0 ],
					"saved_object_attributes" : 					{
						"description" : "",
						"digest" : "",
						"globalpatchername" : "",
						"tags" : ""
					}
,
					"text" : "p pb_calc"
				}

			}
, 			{
				"box" : 				{
					"id" : "obj-89",
					"maxclass" : "newobj",
					"numinlets" : 2,
					"numoutlets" : 1,
					"outlettype" : [ "bang" ],
					"patching_rect" : [ 138.0, 220.0, 61.0, 22.0 ],
					"text" : "delay 500"
				}

			}
, 			{
				"box" : 				{
					"id" : "obj-83",
					"maxclass" : "message",
					"numinlets" : 2,
					"numoutlets" : 1,
					"outlettype" : [ "" ],
					"patching_rect" : [ 138.0, 189.0, 59.0, 22.0 ],
					"text" : "import $1"
				}

			}
, 			{
				"box" : 				{
					"id" : "obj-81",
					"maxclass" : "button",
					"numinlets" : 1,
					"numoutlets" : 1,
					"outlettype" : [ "bang" ],
					"parameter_enable" : 0,
					"patching_rect" : [ 138.0, 122.0, 24.0, 24.0 ],
					"presentation" : 1,
					"presentation_rect" : [ 23.0, 14.0, 24.0, 24.0 ]
				}

			}
, 			{
				"box" : 				{
					"id" : "obj-79",
					"maxclass" : "newobj",
					"numinlets" : 1,
					"numoutlets" : 2,
					"outlettype" : [ "", "bang" ],
					"patching_rect" : [ 138.0, 154.0, 67.0, 22.0 ],
					"text" : "opendialog"
				}

			}
, 			{
				"box" : 				{
					"id" : "obj-78",
					"ignoreclick" : 1,
					"maxclass" : "live.menu",
					"numinlets" : 1,
					"numoutlets" : 3,
					"outlettype" : [ "", "", "float" ],
					"parameter_enable" : 1,
					"patching_rect" : [ 1128.0, 122.0, 41.0, 15.0 ],
					"presentation" : 1,
					"presentation_rect" : [ 271.0, 80.0, 41.0, 15.0 ],
					"saved_attribute_attributes" : 					{
						"valueof" : 						{
							"parameter_enum" : [ "None", " " ],
							"parameter_longname" : "live.menu[11]",
							"parameter_mmax" : 1,
							"parameter_shortname" : "live.menu",
							"parameter_type" : 2
						}

					}
,
					"varname" : "lm_B"
				}

			}
, 			{
				"box" : 				{
					"id" : "obj-77",
					"ignoreclick" : 1,
					"maxclass" : "live.menu",
					"numinlets" : 1,
					"numoutlets" : 3,
					"outlettype" : [ "", "", "float" ],
					"parameter_enable" : 1,
					"patching_rect" : [ 1057.0, 122.0, 41.0, 15.0 ],
					"presentation" : 1,
					"presentation_rect" : [ 206.0, 80.0, 41.0, 15.0 ],
					"saved_attribute_attributes" : 					{
						"valueof" : 						{
							"parameter_enum" : [ "None", " " ],
							"parameter_longname" : "live.menu[10]",
							"parameter_mmax" : 1,
							"parameter_shortname" : "live.menu",
							"parameter_type" : 2
						}

					}
,
					"varname" : "lm_A#"
				}

			}
, 			{
				"box" : 				{
					"id" : "obj-76",
					"ignoreclick" : 1,
					"maxclass" : "live.menu",
					"numinlets" : 1,
					"numoutlets" : 3,
					"outlettype" : [ "", "", "float" ],
					"parameter_enable" : 1,
					"patching_rect" : [ 992.0, 122.0, 41.0, 15.0 ],
					"presentation" : 1,
					"presentation_rect" : [ 141.0, 80.0, 41.0, 15.0 ],
					"saved_attribute_attributes" : 					{
						"valueof" : 						{
							"parameter_enum" : [ "None", " " ],
							"parameter_longname" : "live.menu[9]",
							"parameter_mmax" : 1,
							"parameter_shortname" : "live.menu",
							"parameter_type" : 2
						}

					}
,
					"varname" : "lm_A"
				}

			}
, 			{
				"box" : 				{
					"id" : "obj-75",
					"ignoreclick" : 1,
					"maxclass" : "live.menu",
					"numinlets" : 1,
					"numoutlets" : 3,
					"outlettype" : [ "", "", "float" ],
					"parameter_enable" : 1,
					"patching_rect" : [ 927.0, 122.0, 41.0, 15.0 ],
					"presentation" : 1,
					"presentation_rect" : [ 76.0, 80.0, 41.0, 15.0 ],
					"saved_attribute_attributes" : 					{
						"valueof" : 						{
							"parameter_enum" : [ "None", " " ],
							"parameter_longname" : "live.menu[8]",
							"parameter_mmax" : 1,
							"parameter_shortname" : "live.menu",
							"parameter_type" : 2
						}

					}
,
					"varname" : "lm_G#"
				}

			}
, 			{
				"box" : 				{
					"id" : "obj-74",
					"ignoreclick" : 1,
					"maxclass" : "live.menu",
					"numinlets" : 1,
					"numoutlets" : 3,
					"outlettype" : [ "", "", "float" ],
					"parameter_enable" : 1,
					"patching_rect" : [ 862.0, 122.0, 41.0, 15.0 ],
					"presentation" : 1,
					"presentation_rect" : [ 271.0, 53.0, 41.0, 15.0 ],
					"saved_attribute_attributes" : 					{
						"valueof" : 						{
							"parameter_enum" : [ "None", " " ],
							"parameter_longname" : "live.menu[7]",
							"parameter_mmax" : 1,
							"parameter_shortname" : "live.menu",
							"parameter_type" : 2
						}

					}
,
					"varname" : "lm_G"
				}

			}
, 			{
				"box" : 				{
					"id" : "obj-73",
					"ignoreclick" : 1,
					"maxclass" : "live.menu",
					"numinlets" : 1,
					"numoutlets" : 3,
					"outlettype" : [ "", "", "float" ],
					"parameter_enable" : 1,
					"patching_rect" : [ 797.0, 122.0, 41.0, 15.0 ],
					"presentation" : 1,
					"presentation_rect" : [ 206.0, 53.0, 41.0, 15.0 ],
					"saved_attribute_attributes" : 					{
						"valueof" : 						{
							"parameter_enum" : [ "None", " " ],
							"parameter_longname" : "live.menu[6]",
							"parameter_mmax" : 1,
							"parameter_shortname" : "live.menu",
							"parameter_type" : 2
						}

					}
,
					"varname" : "lm_F#"
				}

			}
, 			{
				"box" : 				{
					"id" : "obj-72",
					"ignoreclick" : 1,
					"maxclass" : "live.menu",
					"numinlets" : 1,
					"numoutlets" : 3,
					"outlettype" : [ "", "", "float" ],
					"parameter_enable" : 1,
					"patching_rect" : [ 732.0, 122.0, 41.0, 15.0 ],
					"presentation" : 1,
					"presentation_rect" : [ 141.0, 53.0, 41.0, 15.0 ],
					"saved_attribute_attributes" : 					{
						"valueof" : 						{
							"parameter_enum" : [ "None", " " ],
							"parameter_longname" : "live.menu[5]",
							"parameter_mmax" : 1,
							"parameter_shortname" : "live.menu",
							"parameter_type" : 2
						}

					}
,
					"varname" : "lm_F"
				}

			}
, 			{
				"box" : 				{
					"id" : "obj-71",
					"ignoreclick" : 1,
					"maxclass" : "live.menu",
					"numinlets" : 1,
					"numoutlets" : 3,
					"outlettype" : [ "", "", "float" ],
					"parameter_enable" : 1,
					"patching_rect" : [ 667.0, 122.0, 41.0, 15.0 ],
					"presentation" : 1,
					"presentation_rect" : [ 76.0, 53.0, 41.0, 15.0 ],
					"saved_attribute_attributes" : 					{
						"valueof" : 						{
							"parameter_enum" : [ "None", " " ],
							"parameter_longname" : "live.menu[4]",
							"parameter_mmax" : 1,
							"parameter_shortname" : "live.menu",
							"parameter_type" : 2
						}

					}
,
					"varname" : "lm_E"
				}

			}
, 			{
				"box" : 				{
					"id" : "obj-70",
					"ignoreclick" : 1,
					"maxclass" : "live.menu",
					"numinlets" : 1,
					"numoutlets" : 3,
					"outlettype" : [ "", "", "float" ],
					"parameter_enable" : 1,
					"patching_rect" : [ 602.0, 122.0, 41.0, 15.0 ],
					"presentation" : 1,
					"presentation_rect" : [ 271.0, 23.0, 41.0, 15.0 ],
					"saved_attribute_attributes" : 					{
						"valueof" : 						{
							"parameter_enum" : [ "None", " " ],
							"parameter_longname" : "live.menu[3]",
							"parameter_mmax" : 1,
							"parameter_shortname" : "live.menu",
							"parameter_type" : 2
						}

					}
,
					"varname" : "lm_D#"
				}

			}
, 			{
				"box" : 				{
					"id" : "obj-69",
					"ignoreclick" : 1,
					"maxclass" : "live.menu",
					"numinlets" : 1,
					"numoutlets" : 3,
					"outlettype" : [ "", "", "float" ],
					"parameter_enable" : 1,
					"patching_rect" : [ 537.0, 122.0, 41.0, 15.0 ],
					"presentation" : 1,
					"presentation_rect" : [ 206.0, 23.0, 41.0, 15.0 ],
					"saved_attribute_attributes" : 					{
						"valueof" : 						{
							"parameter_enum" : [ "None", " " ],
							"parameter_longname" : "live.menu[2]",
							"parameter_mmax" : 1,
							"parameter_shortname" : "live.menu",
							"parameter_type" : 2
						}

					}
,
					"varname" : "lm_D"
				}

			}
, 			{
				"box" : 				{
					"id" : "obj-68",
					"ignoreclick" : 1,
					"maxclass" : "live.menu",
					"numinlets" : 1,
					"numoutlets" : 3,
					"outlettype" : [ "", "", "float" ],
					"parameter_enable" : 1,
					"patching_rect" : [ 472.0, 122.0, 41.0, 15.0 ],
					"presentation" : 1,
					"presentation_rect" : [ 141.0, 23.0, 41.0, 15.0 ],
					"saved_attribute_attributes" : 					{
						"valueof" : 						{
							"parameter_enum" : [ "None", " " ],
							"parameter_longname" : "live.menu[1]",
							"parameter_mmax" : 1,
							"parameter_shortname" : "live.menu",
							"parameter_type" : 2
						}

					}
,
					"varname" : "lm_C#"
				}

			}
, 			{
				"box" : 				{
					"id" : "obj-66",
					"maxclass" : "newobj",
					"numinlets" : 1,
					"numoutlets" : 0,
					"patching_rect" : [ 138.0, 255.0, 121.0, 22.0 ],
					"saved_object_attributes" : 					{
						"filename" : "dictToLMMapper.js",
						"parameter_enable" : 0
					}
,
					"text" : "js dictToLMMapper.js"
				}

			}
, 			{
				"box" : 				{
					"data" : 					{
						"init" : 						{
							"C" : 							{
								"ratios" : 1,
								"names" : [ "def" ]
							}
,
							"C#" : 							{
								"ratios" : 1,
								"names" : [ "def" ]
							}
,
							"D" : 							{
								"ratios" : 1,
								"names" : [ "def" ]
							}
,
							"D#" : 							{
								"ratios" : 1,
								"names" : [ "def" ]
							}
,
							"E" : 							{
								"ratios" : 1,
								"names" : [ "def" ]
							}
,
							"F" : 							{
								"ratios" : 1,
								"names" : [ "def" ]
							}
,
							"F#" : 							{
								"ratios" : 1,
								"names" : [ "def" ]
							}
,
							"G" : 							{
								"ratios" : 1,
								"names" : [ "def" ]
							}
,
							"G#" : 							{
								"ratios" : 1,
								"names" : [ "def" ]
							}
,
							"A" : 							{
								"ratios" : 1,
								"names" : [ "def" ]
							}
,
							"A#" : 							{
								"ratios" : 1,
								"names" : [ "def" ]
							}
,
							"B" : 							{
								"ratios" : 1,
								"names" : [ "def" ]
							}

						}
,
						"C" : [ 1 ],
						"C#" : [ 1.059463 ],
						"D" : [ 1.122462 ],
						"D#" : [ 1.189207 ],
						"E" : [ 1.259921 ],
						"F" : [ 1.33484 ],
						"F#" : [ 1.414214 ],
						"G" : [ 1.498307 ],
						"G#" : [ 1.587401 ],
						"A" : [ 1.681793 ],
						"A#" : [ 1.781797 ],
						"B" : [ 1.887749 ]
					}
,
					"id" : "obj-6",
					"maxclass" : "newobj",
					"numinlets" : 2,
					"numoutlets" : 4,
					"outlettype" : [ "dictionary", "", "", "" ],
					"patching_rect" : [ 37.0, 220.0, 95.0, 22.0 ],
					"saved_object_attributes" : 					{
						"embed" : 1,
						"parameter_enable" : 0,
						"parameter_mappable" : 0
					}
,
					"text" : "dict ratio_values"
				}

			}
, 			{
				"box" : 				{
					"id" : "obj-2",
					"ignoreclick" : 1,
					"maxclass" : "live.menu",
					"numinlets" : 1,
					"numoutlets" : 3,
					"outlettype" : [ "", "", "float" ],
					"parameter_enable" : 1,
					"patching_rect" : [ 407.0, 122.0, 41.0, 15.0 ],
					"presentation" : 1,
					"presentation_rect" : [ 76.0, 23.0, 41.0, 15.0 ],
					"saved_attribute_attributes" : 					{
						"valueof" : 						{
							"parameter_enum" : [ "None", " " ],
							"parameter_longname" : "live.menu",
							"parameter_mmax" : 1,
							"parameter_shortname" : "live.menu",
							"parameter_type" : 2,
							"parameter_units" : "def",
							"parameter_unitstyle" : 0
						}

					}
,
					"varname" : "lm_C"
				}

			}
, 			{
				"box" : 				{
					"id" : "obj-402",
					"linecount" : 3,
					"maxclass" : "newobj",
					"numinlets" : 1,
					"numoutlets" : 0,
					"patching_rect" : [ 178.0, 676.0, 61.0, 49.0 ],
					"text" : "send dm_1_ch0",
					"varname" : "s0"
				}

			}
, 			{
				"box" : 				{
					"id" : "obj-403",
					"linecount" : 3,
					"maxclass" : "newobj",
					"numinlets" : 1,
					"numoutlets" : 0,
					"patching_rect" : [ 241.0, 676.0, 61.0, 49.0 ],
					"text" : "send dm_1_ch1",
					"varname" : "s1"
				}

			}
, 			{
				"box" : 				{
					"id" : "obj-404",
					"linecount" : 3,
					"maxclass" : "newobj",
					"numinlets" : 1,
					"numoutlets" : 0,
					"patching_rect" : [ 304.0, 676.0, 61.0, 49.0 ],
					"text" : "send dm_1_ch2",
					"varname" : "s2"
				}

			}
, 			{
				"box" : 				{
					"id" : "obj-405",
					"linecount" : 3,
					"maxclass" : "newobj",
					"numinlets" : 1,
					"numoutlets" : 0,
					"patching_rect" : [ 367.0, 676.0, 61.0, 49.0 ],
					"text" : "send dm_1_ch3",
					"varname" : "s3"
				}

			}
, 			{
				"box" : 				{
					"id" : "obj-406",
					"linecount" : 3,
					"maxclass" : "newobj",
					"numinlets" : 1,
					"numoutlets" : 0,
					"patching_rect" : [ 430.0, 676.0, 61.0, 49.0 ],
					"text" : "send dm_1_ch4",
					"varname" : "s4"
				}

			}
, 			{
				"box" : 				{
					"id" : "obj-407",
					"linecount" : 3,
					"maxclass" : "newobj",
					"numinlets" : 1,
					"numoutlets" : 0,
					"patching_rect" : [ 493.0, 676.0, 61.0, 49.0 ],
					"text" : "send dm_1_ch5",
					"varname" : "s5"
				}

			}
, 			{
				"box" : 				{
					"id" : "obj-408",
					"linecount" : 3,
					"maxclass" : "newobj",
					"numinlets" : 1,
					"numoutlets" : 0,
					"patching_rect" : [ 556.0, 676.0, 61.0, 49.0 ],
					"text" : "send dm_1_ch6",
					"varname" : "s6"
				}

			}
, 			{
				"box" : 				{
					"id" : "obj-409",
					"linecount" : 3,
					"maxclass" : "newobj",
					"numinlets" : 1,
					"numoutlets" : 0,
					"patching_rect" : [ 619.0, 676.0, 61.0, 49.0 ],
					"text" : "send dm_1_ch7",
					"varname" : "s7"
				}

			}
 ],
		"lines" : [ 			{
				"patchline" : 				{
					"destination" : [ "obj-124", 0 ],
					"midpoints" : [ 546.5, 181.5, 416.5, 181.5 ],
					"source" : [ "obj-100", 0 ]
				}

			}
, 			{
				"patchline" : 				{
					"destination" : [ "obj-124", 0 ],
					"midpoints" : [ 611.5, 181.5, 416.5, 181.5 ],
					"source" : [ "obj-101", 0 ]
				}

			}
, 			{
				"patchline" : 				{
					"destination" : [ "obj-124", 0 ],
					"midpoints" : [ 676.5, 181.5, 416.5, 181.5 ],
					"source" : [ "obj-102", 0 ]
				}

			}
, 			{
				"patchline" : 				{
					"destination" : [ "obj-124", 0 ],
					"midpoints" : [ 741.5, 181.5, 416.5, 181.5 ],
					"source" : [ "obj-103", 0 ]
				}

			}
, 			{
				"patchline" : 				{
					"destination" : [ "obj-124", 0 ],
					"midpoints" : [ 806.5, 181.5, 416.5, 181.5 ],
					"source" : [ "obj-104", 0 ]
				}

			}
, 			{
				"patchline" : 				{
					"destination" : [ "obj-124", 0 ],
					"midpoints" : [ 871.5, 181.5, 416.5, 181.5 ],
					"source" : [ "obj-105", 0 ]
				}

			}
, 			{
				"patchline" : 				{
					"destination" : [ "obj-124", 0 ],
					"midpoints" : [ 936.5, 181.5, 416.5, 181.5 ],
					"source" : [ "obj-106", 0 ]
				}

			}
, 			{
				"patchline" : 				{
					"destination" : [ "obj-124", 0 ],
					"midpoints" : [ 1001.5, 181.5, 416.5, 181.5 ],
					"source" : [ "obj-107", 0 ]
				}

			}
, 			{
				"patchline" : 				{
					"destination" : [ "obj-124", 0 ],
					"midpoints" : [ 1066.5, 181.5, 416.5, 181.5 ],
					"source" : [ "obj-108", 0 ]
				}

			}
, 			{
				"patchline" : 				{
					"destination" : [ "obj-124", 0 ],
					"midpoints" : [ 1137.5, 181.5, 416.5, 181.5 ],
					"source" : [ "obj-109", 0 ]
				}

			}
, 			{
				"patchline" : 				{
					"destination" : [ "obj-118", 0 ],
					"source" : [ "obj-124", 1 ]
				}

			}
, 			{
				"patchline" : 				{
					"destination" : [ "obj-93", 1 ],
					"midpoints" : [ 416.5, 401.25, 228.5, 401.25 ],
					"source" : [ "obj-124", 0 ]
				}

			}
, 			{
				"patchline" : 				{
					"destination" : [ "obj-134", 0 ],
					"source" : [ "obj-131", 0 ]
				}

			}
, 			{
				"patchline" : 				{
					"destination" : [ "obj-149", 0 ],
					"source" : [ "obj-132", 2 ]
				}

			}
, 			{
				"patchline" : 				{
					"destination" : [ "obj-153", 0 ],
					"source" : [ "obj-132", 1 ]
				}

			}
, 			{
				"patchline" : 				{
					"destination" : [ "obj-162", 0 ],
					"source" : [ "obj-132", 0 ]
				}

			}
, 			{
				"patchline" : 				{
					"destination" : [ "obj-165", 0 ],
					"source" : [ "obj-134", 0 ]
				}

			}
, 			{
				"patchline" : 				{
					"destination" : [ "obj-132", 1 ],
					"source" : [ "obj-135", 1 ]
				}

			}
, 			{
				"patchline" : 				{
					"destination" : [ "obj-132", 0 ],
					"source" : [ "obj-135", 0 ]
				}

			}
, 			{
				"patchline" : 				{
					"destination" : [ "obj-154", 1 ],
					"midpoints" : [ 262.5, 547.5, 367.5, 547.5 ],
					"source" : [ "obj-136", 0 ]
				}

			}
, 			{
				"patchline" : 				{
					"destination" : [ "obj-136", 1 ],
					"source" : [ "obj-137", 1 ]
				}

			}
, 			{
				"patchline" : 				{
					"destination" : [ "obj-136", 0 ],
					"source" : [ "obj-137", 0 ]
				}

			}
, 			{
				"patchline" : 				{
					"destination" : [ "obj-156", 0 ],
					"source" : [ "obj-149", 0 ]
				}

			}
, 			{
				"patchline" : 				{
					"destination" : [ "obj-142", 0 ],
					"midpoints" : [ 367.5, 604.5, 344.5, 604.5 ],
					"source" : [ "obj-151", 0 ]
				}

			}
, 			{
				"patchline" : 				{
					"destination" : [ "obj-137", 1 ],
					"source" : [ "obj-153", 0 ]
				}

			}
, 			{
				"patchline" : 				{
					"destination" : [ "obj-142", 0 ],
					"source" : [ "obj-154", 0 ]
				}

			}
, 			{
				"patchline" : 				{
					"destination" : [ "obj-151", 0 ],
					"source" : [ "obj-154", 1 ]
				}

			}
, 			{
				"patchline" : 				{
					"destination" : [ "obj-154", 0 ],
					"source" : [ "obj-156", 0 ]
				}

			}
, 			{
				"patchline" : 				{
					"destination" : [ "obj-137", 0 ],
					"source" : [ "obj-162", 0 ]
				}

			}
, 			{
				"patchline" : 				{
					"destination" : [ "obj-135", 0 ],
					"source" : [ "obj-165", 1 ]
				}

			}
, 			{
				"patchline" : 				{
					"destination" : [ "obj-93", 0 ],
					"source" : [ "obj-165", 0 ]
				}

			}
, 			{
				"patchline" : 				{
					"destination" : [ "obj-231", 0 ],
					"source" : [ "obj-186", 0 ]
				}

			}
, 			{
				"patchline" : 				{
					"destination" : [ "obj-98", 0 ],
					"source" : [ "obj-2", 0 ]
				}

			}
, 			{
				"patchline" : 				{
					"destination" : [ "obj-402", 0 ],
					"source" : [ "obj-43", 0 ]
				}

			}
, 			{
				"patchline" : 				{
					"destination" : [ "obj-403", 0 ],
					"source" : [ "obj-43", 1 ]
				}

			}
, 			{
				"patchline" : 				{
					"destination" : [ "obj-404", 0 ],
					"source" : [ "obj-43", 2 ]
				}

			}
, 			{
				"patchline" : 				{
					"destination" : [ "obj-405", 0 ],
					"source" : [ "obj-43", 3 ]
				}

			}
, 			{
				"patchline" : 				{
					"destination" : [ "obj-406", 0 ],
					"source" : [ "obj-43", 4 ]
				}

			}
, 			{
				"patchline" : 				{
					"destination" : [ "obj-407", 0 ],
					"source" : [ "obj-43", 5 ]
				}

			}
, 			{
				"patchline" : 				{
					"destination" : [ "obj-408", 0 ],
					"source" : [ "obj-43", 6 ]
				}

			}
, 			{
				"patchline" : 				{
					"destination" : [ "obj-409", 0 ],
					"source" : [ "obj-43", 7 ]
				}

			}
, 			{
				"patchline" : 				{
					"destination" : [ "obj-99", 0 ],
					"source" : [ "obj-68", 0 ]
				}

			}
, 			{
				"patchline" : 				{
					"destination" : [ "obj-100", 0 ],
					"source" : [ "obj-69", 0 ]
				}

			}
, 			{
				"patchline" : 				{
					"destination" : [ "obj-101", 0 ],
					"source" : [ "obj-70", 0 ]
				}

			}
, 			{
				"patchline" : 				{
					"destination" : [ "obj-102", 0 ],
					"source" : [ "obj-71", 0 ]
				}

			}
, 			{
				"patchline" : 				{
					"destination" : [ "obj-103", 0 ],
					"source" : [ "obj-72", 0 ]
				}

			}
, 			{
				"patchline" : 				{
					"destination" : [ "obj-104", 0 ],
					"source" : [ "obj-73", 0 ]
				}

			}
, 			{
				"patchline" : 				{
					"destination" : [ "obj-105", 0 ],
					"source" : [ "obj-74", 0 ]
				}

			}
, 			{
				"patchline" : 				{
					"destination" : [ "obj-106", 0 ],
					"source" : [ "obj-75", 0 ]
				}

			}
, 			{
				"patchline" : 				{
					"destination" : [ "obj-107", 0 ],
					"source" : [ "obj-76", 0 ]
				}

			}
, 			{
				"patchline" : 				{
					"destination" : [ "obj-108", 0 ],
					"source" : [ "obj-77", 0 ]
				}

			}
, 			{
				"patchline" : 				{
					"destination" : [ "obj-109", 0 ],
					"source" : [ "obj-78", 0 ]
				}

			}
, 			{
				"patchline" : 				{
					"destination" : [ "obj-83", 0 ],
					"source" : [ "obj-79", 0 ]
				}

			}
, 			{
				"patchline" : 				{
					"destination" : [ "obj-79", 0 ],
					"source" : [ "obj-81", 0 ]
				}

			}
, 			{
				"patchline" : 				{
					"destination" : [ "obj-6", 0 ],
					"midpoints" : [ 147.5, 215.0, 46.5, 215.0 ],
					"order" : 1,
					"source" : [ "obj-83", 0 ]
				}

			}
, 			{
				"patchline" : 				{
					"destination" : [ "obj-89", 0 ],
					"order" : 0,
					"source" : [ "obj-83", 0 ]
				}

			}
, 			{
				"patchline" : 				{
					"destination" : [ "obj-66", 0 ],
					"source" : [ "obj-89", 0 ]
				}

			}
, 			{
				"patchline" : 				{
					"destination" : [ "obj-43", 0 ],
					"source" : [ "obj-93", 0 ]
				}

			}
, 			{
				"patchline" : 				{
					"destination" : [ "obj-124", 0 ],
					"midpoints" : [ 416.5, 181.5, 416.5, 181.5 ],
					"source" : [ "obj-98", 0 ]
				}

			}
, 			{
				"patchline" : 				{
					"destination" : [ "obj-124", 0 ],
					"midpoints" : [ 481.5, 181.5, 416.5, 181.5 ],
					"source" : [ "obj-99", 0 ]
				}

			}
 ],
		"parameters" : 		{
			"obj-186" : [ "live.numbox", "live.numbox", 0 ],
			"obj-2" : [ "live.menu", "live.menu", 0 ],
			"obj-68" : [ "live.menu[1]", "live.menu", 0 ],
			"obj-69" : [ "live.menu[2]", "live.menu", 0 ],
			"obj-70" : [ "live.menu[3]", "live.menu", 0 ],
			"obj-71" : [ "live.menu[4]", "live.menu", 0 ],
			"obj-72" : [ "live.menu[5]", "live.menu", 0 ],
			"obj-73" : [ "live.menu[6]", "live.menu", 0 ],
			"obj-74" : [ "live.menu[7]", "live.menu", 0 ],
			"obj-75" : [ "live.menu[8]", "live.menu", 0 ],
			"obj-76" : [ "live.menu[9]", "live.menu", 0 ],
			"obj-77" : [ "live.menu[10]", "live.menu", 0 ],
			"obj-78" : [ "live.menu[11]", "live.menu", 0 ],
			"parameterbanks" : 			{

			}
,
			"inherited_shortname" : 1
		}
,
		"dependency_cache" : [ 			{
				"name" : "dictToLMMapper.js",
				"bootpath" : "~/Coding/Max/FPK2021/Max",
				"patcherrelativepath" : ".",
				"type" : "TEXT",
				"implicit" : 1
			}
, 			{
				"name" : "noteNames",
				"bootpath" : "~/Coding/Max/FPK2021/Max",
				"patcherrelativepath" : ".",
				"type" : "TEXT",
				"implicit" : 1
			}
, 			{
				"name" : "note_ratios",
				"bootpath" : "~/Coding/Max/FPK2021/Max",
				"patcherrelativepath" : ".",
				"type" : "TEXT",
				"implicit" : 1
			}
, 			{
				"name" : "sendRemapper.js",
				"bootpath" : "~/Coding/Max/FPK2021/Max",
				"patcherrelativepath" : ".",
				"type" : "TEXT",
				"implicit" : 1
			}
 ],
		"autosave" : 0
	}

}
